<svg width="171" height="34" viewBox="0 0 171 34" fill="none" xmlns="http://www.w3.org/2000/svg">
<path d="M55.2119 14.6579V2.34524H58.466V6.91853H63.2152V2.34524H66.4692V14.6579H63.2152V9.90876H58.466V14.6579H55.2119Z" fill="white"/>
<path d="M68.3958 3.04883C68.3958 2.62668 68.5542 2.27488 68.8708 1.99345C69.1874 1.70029 69.5861 1.55371 70.0669 1.55371C70.5476 1.55371 70.9463 1.70029 71.2629 1.99345C71.5796 2.27488 71.7379 2.62668 71.7379 3.04883C71.7379 3.45925 71.5796 3.81104 71.2629 4.1042C70.9463 4.39736 70.5476 4.54394 70.0669 4.54394C69.5861 4.54394 69.1874 4.39736 68.8708 4.1042C68.5542 3.81104 68.3958 3.45925 68.3958 3.04883ZM68.5717 14.6579V5.51137H71.562V14.6579H68.5717Z" fill="white"/>
<path d="M74.2404 13.2684C73.4547 12.4006 73.0619 11.2807 73.0619 9.90876C73.0619 8.53677 73.4547 7.4169 74.2404 6.54915C75.0261 5.6814 75.9818 5.24752 77.1075 5.24752C77.9166 5.24752 78.6143 5.48205 79.2007 5.9511C79.4704 6.16218 79.6814 6.39671 79.8339 6.65469H80.0098V5.51137H83V18H74.2932V15.6254H80.0098V13.2508H79.8339C79.6697 13.5088 79.4586 13.7316 79.2007 13.9192C78.6261 14.3531 77.9283 14.57 77.1075 14.57C75.9818 14.57 75.0261 14.1361 74.2404 13.2684ZM76.6678 8.36088C76.316 8.73612 76.1401 9.25208 76.1401 9.90876C76.1401 10.5654 76.316 11.0814 76.6678 11.4566C77.0196 11.8319 77.4886 12.0195 78.0749 12.0195C78.6612 12.0195 79.1303 11.8319 79.4821 11.4566C79.8339 11.0814 80.0098 10.5654 80.0098 9.90876C80.0098 9.25208 79.8339 8.73612 79.4821 8.36088C79.1303 7.98563 78.6612 7.79801 78.0749 7.79801C77.4886 7.79801 77.0196 7.98563 76.6678 8.36088Z" fill="white"/>
<path d="M84.7507 14.6579V2.34524H87.7409V6.74264H87.9168C88.081 6.4612 88.2921 6.21495 88.5501 6.00387C89.1481 5.49964 89.8458 5.24752 90.6432 5.24752C91.7221 5.24752 92.5605 5.57586 93.1585 6.23254C93.7683 6.87749 94.0732 7.80974 94.0732 9.02928V14.6579H91.083V9.46902C91.083 8.94133 90.9422 8.53091 90.6608 8.23775C90.3794 7.94459 89.9924 7.79801 89.4999 7.79801C88.9957 7.79801 88.5735 7.98563 88.2335 8.36088C87.9051 8.7244 87.7409 9.21104 87.7409 9.82081V14.6579H84.7507Z" fill="white"/>
<path d="M100.674 18V5.51137H103.664V6.74264H103.84C104.004 6.47293 104.227 6.22668 104.509 6.00387C105.154 5.49964 105.84 5.24752 106.567 5.24752C107.692 5.24752 108.648 5.69313 109.434 6.58433C110.219 7.46381 110.612 8.63058 110.612 10.0847C110.612 11.5387 110.219 12.7114 109.434 13.6026C108.648 14.482 107.692 14.9218 106.567 14.9218C105.828 14.9218 105.142 14.6755 104.509 14.183C104.227 13.9602 104.004 13.7081 103.84 13.4267H103.664V18H100.674ZM104.192 8.39606C103.84 8.79475 103.664 9.35762 103.664 10.0847C103.664 10.8117 103.84 11.3746 104.192 11.7733C104.544 12.172 105.013 12.3713 105.599 12.3713C106.185 12.3713 106.655 12.172 107.006 11.7733C107.358 11.3746 107.534 10.8117 107.534 10.0847C107.534 9.35762 107.358 8.79475 107.006 8.39606C106.655 7.99736 106.185 7.79801 105.599 7.79801C105.013 7.79801 104.544 7.99736 104.192 8.39606Z" fill="white"/>
<path d="M112.838 13.6026C112.052 12.7114 111.659 11.5387 111.659 10.0847C111.659 8.63058 112.052 7.46381 112.838 6.58433C113.624 5.69313 114.579 5.24752 115.705 5.24752C116.432 5.24752 117.118 5.49964 117.763 6.00387C118.033 6.22668 118.255 6.47293 118.431 6.74264H118.607V5.51137H121.597V14.6579H118.607V13.4267H118.431C118.267 13.7081 118.044 13.9602 117.763 14.183C117.13 14.6755 116.444 14.9218 115.705 14.9218C114.579 14.9218 113.624 14.482 112.838 13.6026ZM115.265 8.39606C114.913 8.79475 114.738 9.35762 114.738 10.0847C114.738 10.8117 114.913 11.3746 115.265 11.7733C115.617 12.172 116.086 12.3713 116.672 12.3713C117.259 12.3713 117.728 12.172 118.08 11.7733C118.431 11.3746 118.607 10.8117 118.607 10.0847C118.607 9.35762 118.431 8.79475 118.08 8.39606C117.728 7.99736 117.259 7.79801 116.672 7.79801C116.086 7.79801 115.617 7.99736 115.265 8.39606Z" fill="white"/>
<path d="M122.82 11.6677H125.811C125.858 11.8436 125.957 12.0078 126.11 12.1602C126.426 12.4768 126.884 12.6351 127.482 12.6351C128.303 12.6351 128.713 12.4299 128.713 12.0195C128.713 11.8319 128.596 11.6853 128.361 11.5798C128.127 11.4625 127.775 11.3452 127.306 11.228C126.919 11.1342 126.667 11.0755 126.549 11.0521C126.432 11.0286 126.186 10.9641 125.811 10.8586C125.435 10.7413 125.166 10.6417 125.002 10.5596C124.849 10.4658 124.632 10.3368 124.351 10.1726C124.081 9.99671 123.882 9.82081 123.753 9.64492C123.635 9.45729 123.524 9.22863 123.419 8.95892C123.313 8.67749 123.26 8.37847 123.26 8.06185C123.26 7.28791 123.606 6.62537 124.298 6.07423C124.99 5.52309 125.963 5.24752 127.218 5.24752C128.789 5.24752 130.032 5.76348 130.947 6.7954C131.31 7.24101 131.562 7.7511 131.703 8.3257H128.801C128.731 8.13808 128.648 7.9915 128.555 7.88596C128.285 7.5928 127.898 7.44622 127.394 7.44622C126.69 7.44622 126.338 7.65143 126.338 8.06185C126.338 8.2612 126.456 8.41365 126.69 8.51918C126.925 8.62472 127.282 8.7244 127.763 8.81821C128.971 9.09964 129.786 9.34589 130.208 9.55697C131.263 10.0729 131.791 10.8645 131.791 11.9316C131.791 12.7759 131.416 13.4853 130.665 14.0599C129.927 14.6345 128.865 14.9218 127.482 14.9218C125.781 14.9218 124.486 14.3824 123.594 13.3035C123.196 12.8228 122.938 12.2775 122.82 11.6677Z" fill="white"/>
<path d="M132.577 11.6677H135.567C135.614 11.8436 135.714 12.0078 135.866 12.1602C136.183 12.4768 136.64 12.6351 137.238 12.6351C138.059 12.6351 138.47 12.4299 138.47 12.0195C138.47 11.8319 138.352 11.6853 138.118 11.5798C137.883 11.4625 137.532 11.3452 137.063 11.228C136.676 11.1342 136.423 11.0755 136.306 11.0521C136.189 11.0286 135.943 10.9641 135.567 10.8586C135.192 10.7413 134.922 10.6417 134.758 10.5596C134.606 10.4658 134.389 10.3368 134.107 10.1726C133.838 9.99671 133.638 9.82081 133.509 9.64492C133.392 9.45729 133.281 9.22863 133.175 8.95892C133.07 8.67749 133.017 8.37847 133.017 8.06185C133.017 7.28791 133.363 6.62537 134.055 6.07423C134.747 5.52309 135.72 5.24752 136.975 5.24752C138.546 5.24752 139.789 5.76348 140.704 6.7954C141.067 7.24101 141.319 7.7511 141.46 8.3257H138.558C138.487 8.13808 138.405 7.9915 138.311 7.88596C138.042 7.5928 137.655 7.44622 137.15 7.44622C136.447 7.44622 136.095 7.65143 136.095 8.06185C136.095 8.2612 136.212 8.41365 136.447 8.51918C136.681 8.62472 137.039 8.7244 137.52 8.81821C138.728 9.09964 139.543 9.34589 139.965 9.55697C141.02 10.0729 141.548 10.8645 141.548 11.9316C141.548 12.7759 141.173 13.4853 140.422 14.0599C139.683 14.6345 138.622 14.9218 137.238 14.9218C135.538 14.9218 134.242 14.3824 133.351 13.3035C132.952 12.8228 132.694 12.2775 132.577 11.6677Z" fill="white"/>
<path fill-rule="evenodd" clip-rule="evenodd" d="M33.5179 3.51792V14.0717H44.0717L33.5179 3.51792ZM30 0V17.5896H47.5896V0H30Z" fill="#FF6E30"/>
<path d="M1.54309 29.66C0.889753 29.06 0.563086 28.3233 0.563086 27.45C0.563086 26.5767 0.889753 25.8433 1.54309 25.25C2.19642 24.65 3.05309 24.35 4.11309 24.35V23.55H5.01309V24.35C6.07309 24.35 6.92975 24.65 7.58309 25.25C8.23642 25.8433 8.56309 26.5767 8.56309 27.45C8.56309 28.3233 8.23642 29.06 7.58309 29.66C6.92975 30.2533 6.07309 30.55 5.01309 30.55V31.35H4.11309V30.55C3.05309 30.55 2.19642 30.2533 1.54309 29.66ZM5.01309 25.15V29.75C5.81975 29.75 6.46309 29.5333 6.94309 29.1C7.42309 28.6667 7.66309 28.1167 7.66309 27.45C7.66309 26.7833 7.42309 26.2333 6.94309 25.8C6.46309 25.3667 5.81975 25.15 5.01309 25.15ZM2.18309 25.8C1.70309 26.2333 1.46309 26.7833 1.46309 27.45C1.46309 28.1167 1.70309 28.6667 2.18309 29.1C2.66309 29.5333 3.30642 29.75 4.11309 29.75V25.15C3.30642 25.15 2.66309 25.3667 2.18309 25.8ZM10.1019 30.36C9.60858 29.8667 9.36191 29.2467 9.36191 28.5C9.36191 27.7533 9.60858 27.1333 10.1019 26.64C10.5952 26.1467 11.2152 25.9 11.9619 25.9C12.7086 25.9 13.3286 26.1467 13.8219 26.64C14.3152 27.1333 14.5619 27.7533 14.5619 28.5C14.5619 29.2467 14.3152 29.8667 13.8219 30.36C13.3286 30.8533 12.7086 31.1 11.9619 31.1C11.2152 31.1 10.5952 30.8533 10.1019 30.36ZM10.6719 27.17C10.3319 27.5167 10.1619 27.96 10.1619 28.5C10.1619 29.04 10.3319 29.4833 10.6719 29.83C11.0119 30.1767 11.4419 30.35 11.9619 30.35C12.4819 30.35 12.9119 30.1767 13.2519 29.83C13.5919 29.4833 13.7619 29.04 13.7619 28.5C13.7619 27.96 13.5919 27.5167 13.2519 27.17C12.9119 26.8233 12.4819 26.65 11.9619 26.65C11.4419 26.65 11.0119 26.8233 10.6719 27.17ZM15.008 26.75V26H19.308V26.75H17.558V31H16.758V26.75H15.008ZM20.5023 30.36C20.009 29.8667 19.7623 29.2467 19.7623 28.5C19.7623 27.7533 20.009 27.1333 20.5023 26.64C20.9956 26.1467 21.6156 25.9 22.3623 25.9C23.109 25.9 23.729 26.1467 24.2223 26.64C24.7156 27.1333 24.9623 27.7533 24.9623 28.5C24.9623 29.2467 24.7156 29.8667 24.2223 30.36C23.729 30.8533 23.109 31.1 22.3623 31.1C21.6156 31.1 20.9956 30.8533 20.5023 30.36ZM21.0723 27.17C20.7323 27.5167 20.5623 27.96 20.5623 28.5C20.5623 29.04 20.7323 29.4833 21.0723 29.83C21.4123 30.1767 21.8423 30.35 22.3623 30.35C22.8823 30.35 23.3123 30.1767 23.6523 29.83C23.9923 29.4833 24.1623 29.04 24.1623 28.5C24.1623 27.96 23.9923 27.5167 23.6523 27.17C23.3123 26.8233 22.8823 26.65 22.3623 26.65C21.8423 26.65 21.4123 26.8233 21.0723 27.17ZM26.4784 30.36C25.9984 29.8667 25.7584 29.2467 25.7584 28.5C25.7584 27.7533 25.9984 27.1333 26.4784 26.64C26.9584 26.1467 27.5517 25.9 28.2584 25.9C29.0784 25.9 29.7284 26.1933 30.2084 26.78C30.4151 27.04 30.5651 27.33 30.6584 27.65H29.8584C29.7851 27.47 29.6751 27.3033 29.5284 27.15C29.2084 26.8167 28.7851 26.65 28.2584 26.65C27.7717 26.65 27.3651 26.8233 27.0384 27.17C26.7184 27.5167 26.5584 27.96 26.5584 28.5C26.5584 29.04 26.7251 29.4833 27.0584 29.83C27.3917 30.1767 27.7917 30.35 28.2584 30.35C28.8051 30.35 29.2417 30.1667 29.5684 29.8C29.7151 29.6467 29.8284 29.4633 29.9084 29.25H30.7084C30.6217 29.59 30.4684 29.9 30.2484 30.18C29.7417 30.7933 29.0784 31.1 28.2584 31.1C27.5517 31.1 26.9584 30.8533 26.4784 30.36ZM31.0627 26.75V26H35.3627V26.75H33.6127V31H32.8127V26.75H31.0627ZM35.617 26H36.467L37.567 30.25H38.317L39.617 26H40.467L38.367 32.9H37.517L38.117 31H36.967L35.617 26ZM40.3205 32.15V30.25H40.8705L42.0205 26H44.1205L45.2705 30.25H45.8205V32.15H45.0205V31H41.1205V32.15H40.3205ZM41.6705 30.25H44.4705L43.5205 26.75H42.6205L41.6705 30.25ZM46.5662 31V26H47.3662V29.75L47.3562 29.85H47.3762L50.0662 26H50.9662V31H50.1662V27.25L50.1762 27.15H50.1562L47.4662 31H46.5662ZM52.167 31L53.167 29.2C53.0003 29.1267 52.8337 29.02 52.667 28.88C52.3337 28.5733 52.167 28.18 52.167 27.7C52.167 27.2133 52.3437 26.81 52.697 26.49C53.0503 26.1633 53.5203 26 54.107 26H56.367V31H55.567V29.4H53.967L53.087 31H52.167ZM53.257 27.01C53.0637 27.1833 52.967 27.4133 52.967 27.7C52.967 27.9867 53.0637 28.2167 53.257 28.39C53.457 28.5633 53.7437 28.65 54.117 28.65H55.567V26.75H54.117C53.7437 26.75 53.457 26.8367 53.257 27.01ZM60.6701 31V24H61.5701V27.05H65.3201V24H66.2201V31H65.3201V27.9H61.5701V31H60.6701ZM67.7286 24.89C67.6219 24.7833 67.5686 24.6533 67.5686 24.5C67.5686 24.3467 67.6219 24.2167 67.7286 24.11C67.8352 24.0033 67.9652 23.95 68.1186 23.95C68.2719 23.95 68.4019 24.0033 68.5086 24.11C68.6152 24.2167 68.6686 24.3467 68.6686 24.5C68.6686 24.6533 68.6152 24.7833 68.5086 24.89C68.4019 24.9967 68.2719 25.05 68.1186 25.05C67.9652 25.05 67.8352 24.9967 67.7286 24.89ZM67.7186 31V26H68.5186V31H67.7186ZM70.3158 30.36C69.8492 29.86 69.6158 29.24 69.6158 28.5C69.6158 27.76 69.8492 27.1433 70.3158 26.65C70.7825 26.15 71.3492 25.9 72.0158 25.9C72.4358 25.9 72.7925 25.98 73.0858 26.14C73.3792 26.3 73.5892 26.47 73.7158 26.65L73.8058 26.8H73.8158V26H74.6158V32.9H70.3158V32.15H73.8158V30.2H73.8058L73.7158 30.34C73.5958 30.52 73.3892 30.6933 73.0958 30.86C72.8025 31.02 72.4425 31.1 72.0158 31.1C71.3492 31.1 70.7825 30.8533 70.3158 30.36ZM70.8958 27.17C70.5758 27.5167 70.4158 27.96 70.4158 28.5C70.4158 29.04 70.5758 29.4833 70.8958 29.83C71.2225 30.1767 71.6292 30.35 72.1158 30.35C72.6025 30.35 73.0058 30.1767 73.3258 29.83C73.6525 29.4833 73.8158 29.04 73.8158 28.5C73.8158 27.96 73.6525 27.5167 73.3258 27.17C73.0058 26.8233 72.6025 26.65 72.1158 26.65C71.6292 26.65 71.2225 26.8233 70.8958 27.17ZM76.0193 31V24H76.8193V26.75H76.8293C76.9293 26.59 77.0593 26.45 77.2193 26.33C77.586 26.0433 78.0193 25.9 78.5193 25.9C79.126 25.9 79.6093 26.0933 79.9693 26.48C80.336 26.86 80.5193 27.3833 80.5193 28.05V31H79.7193V28.1C79.7193 27.62 79.5993 27.26 79.3593 27.02C79.1193 26.7733 78.7893 26.65 78.3693 26.65C77.9093 26.65 77.536 26.8033 77.2493 27.11C76.9627 27.41 76.8193 27.8067 76.8193 28.3V31H76.0193ZM84.6229 32.9V26H85.4229V26.8H85.4329L85.5329 26.65C85.6462 26.4767 85.8495 26.31 86.1429 26.15C86.4362 25.9833 86.7962 25.9 87.2229 25.9C87.8895 25.9 88.4562 26.15 88.9229 26.65C89.3895 27.1433 89.6229 27.76 89.6229 28.5C89.6229 29.24 89.3895 29.86 88.9229 30.36C88.4562 30.8533 87.8895 31.1 87.2229 31.1C86.7962 31.1 86.4329 31.02 86.1329 30.86C85.8395 30.6933 85.6395 30.52 85.5329 30.34L85.4329 30.2H85.4229V32.9H84.6229ZM85.9029 27.17C85.5829 27.5167 85.4229 27.96 85.4229 28.5C85.4229 29.04 85.5829 29.4833 85.9029 29.83C86.2295 30.1767 86.6362 30.35 87.1229 30.35C87.6095 30.35 88.0129 30.1767 88.3329 29.83C88.6595 29.4833 88.8229 29.04 88.8229 28.5C88.8229 27.96 88.6595 27.5167 88.3329 27.17C88.0129 26.8233 87.6095 26.65 87.1229 26.65C86.6362 26.65 86.2295 26.8233 85.9029 27.17ZM91.1264 30.36C90.6597 29.86 90.4264 29.24 90.4264 28.5C90.4264 27.76 90.6597 27.1433 91.1264 26.65C91.593 26.15 92.1597 25.9 92.8264 25.9C93.2464 25.9 93.5997 25.98 93.8864 26.14C94.1797 26.3 94.393 26.4733 94.5264 26.66L94.6164 26.81H94.6264V26H95.4264V31H94.6264V30.2H94.6164L94.5264 30.34C94.4064 30.52 94.1997 30.6933 93.9064 30.86C93.613 31.02 93.253 31.1 92.8264 31.1C92.1597 31.1 91.593 30.8533 91.1264 30.36ZM91.7064 27.17C91.3864 27.5167 91.2264 27.96 91.2264 28.5C91.2264 29.04 91.3864 29.4833 91.7064 29.83C92.033 30.1767 92.4397 30.35 92.9264 30.35C93.413 30.35 93.8164 30.1767 94.1364 29.83C94.463 29.4833 94.6264 29.04 94.6264 28.5C94.6264 27.96 94.463 27.5167 94.1364 27.17C93.8164 26.8233 93.413 26.65 92.9264 26.65C92.4397 26.65 92.033 26.8233 91.7064 27.17ZM96.4799 29.45H97.3299C97.4032 29.63 97.4999 29.78 97.6199 29.9C97.9199 30.2 98.3065 30.35 98.7799 30.35C99.2065 30.35 99.5199 30.28 99.7199 30.14C99.9265 30 100.03 29.82 100.03 29.6C100.03 29.48 99.9865 29.3767 99.8999 29.29C99.8199 29.2033 99.6865 29.1267 99.4999 29.06C99.3132 28.9933 99.1465 28.9433 98.9999 28.91C98.8599 28.87 98.6532 28.8233 98.3799 28.77C97.2799 28.5433 96.7299 28.0533 96.7299 27.3C96.7299 26.9067 96.8965 26.5767 97.2299 26.31C97.5632 26.0367 98.0299 25.9 98.6299 25.9C99.3765 25.9 99.9665 26.15 100.4 26.65C100.573 26.8767 100.7 27.1267 100.78 27.4H99.9299C99.8699 27.2667 99.7832 27.1433 99.6699 27.03C99.4165 26.7767 99.0699 26.65 98.6299 26.65C98.2765 26.65 98.0032 26.7167 97.8099 26.85C97.6232 26.9833 97.5299 27.1333 97.5299 27.3C97.5299 27.42 97.5699 27.5233 97.6499 27.61C97.7365 27.6967 97.8732 27.7733 98.0599 27.84C98.2465 27.9067 98.4099 27.96 98.5499 28C98.6965 28.0333 98.9065 28.0767 99.1799 28.13C100.28 28.3567 100.83 28.8467 100.83 29.6C100.83 30.0267 100.65 30.3833 100.29 30.67C99.9299 30.9567 99.4265 31.1 98.7799 31.1C97.9665 31.1 97.3399 30.8267 96.8999 30.28C96.7132 30.04 96.5732 29.7633 96.4799 29.45ZM101.578 29.45H102.428C102.501 29.63 102.598 29.78 102.718 29.9C103.018 30.2 103.404 30.35 103.878 30.35C104.304 30.35 104.618 30.28 104.818 30.14C105.024 30 105.128 29.82 105.128 29.6C105.128 29.48 105.084 29.3767 104.998 29.29C104.918 29.2033 104.784 29.1267 104.598 29.06C104.411 28.9933 104.244 28.9433 104.098 28.91C103.958 28.87 103.751 28.8233 103.478 28.77C102.378 28.5433 101.828 28.0533 101.828 27.3C101.828 26.9067 101.994 26.5767 102.328 26.31C102.661 26.0367 103.128 25.9 103.728 25.9C104.474 25.9 105.064 26.15 105.498 26.65C105.671 26.8767 105.798 27.1267 105.878 27.4H105.028C104.968 27.2667 104.881 27.1433 104.768 27.03C104.514 26.7767 104.168 26.65 103.728 26.65C103.374 26.65 103.101 26.7167 102.908 26.85C102.721 26.9833 102.628 27.1333 102.628 27.3C102.628 27.42 102.668 27.5233 102.748 27.61C102.834 27.6967 102.971 27.7733 103.158 27.84C103.344 27.9067 103.508 27.96 103.648 28C103.794 28.0333 104.004 28.0767 104.278 28.13C105.378 28.3567 105.928 28.8467 105.928 29.6C105.928 30.0267 105.748 30.3833 105.388 30.67C105.028 30.9567 104.524 31.1 103.878 31.1C103.064 31.1 102.438 30.8267 101.998 30.28C101.811 30.04 101.671 29.7633 101.578 29.45ZM107.435 28.25C106.929 27.7433 106.675 27.1267 106.675 26.4C106.675 25.6733 106.929 25.06 107.435 24.56C107.949 24.0533 108.579 23.8 109.325 23.8C110.072 23.8 110.699 24.0533 111.205 24.56C111.719 25.06 111.975 25.6733 111.975 26.4C111.975 27.1267 111.719 27.7433 111.205 28.25C110.699 28.75 110.072 29 109.325 29C108.579 29 107.949 28.75 107.435 28.25ZM107.895 24.97C107.515 25.35 107.325 25.8267 107.325 26.4C107.325 26.9733 107.515 27.45 107.895 27.83C108.275 28.21 108.752 28.4 109.325 28.4C109.899 28.4 110.375 28.21 110.755 27.83C111.135 27.45 111.325 26.9733 111.325 26.4C111.325 25.8267 111.135 25.35 110.755 24.97C110.375 24.59 109.899 24.4 109.325 24.4C108.752 24.4 108.275 24.59 107.895 24.97ZM108.325 27.55V25.1H109.475C110.175 25.1 110.525 25.4 110.525 26C110.525 26.22 110.442 26.4133 110.275 26.58C110.202 26.6533 110.119 26.71 110.025 26.75L110.575 27.55H109.875L109.375 26.85H108.975V27.55H108.325ZM108.975 26.3H109.475C109.749 26.3 109.885 26.2 109.885 26C109.885 25.8 109.749 25.7 109.475 25.7H108.975V26.3ZM115.424 31V30.15L117.724 28.45C118.357 27.9767 118.807 27.57 119.074 27.23C119.341 26.89 119.474 26.4967 119.474 26.05C119.474 25.6433 119.334 25.31 119.054 25.05C118.781 24.7833 118.421 24.65 117.974 24.65C117.401 24.65 116.974 24.8833 116.694 25.35C116.561 25.5633 116.471 25.7967 116.424 26.05H115.474C115.534 25.6367 115.664 25.2633 115.864 24.93C116.337 24.1767 117.041 23.8 117.974 23.8C118.667 23.8 119.241 24.0167 119.694 24.45C120.147 24.8833 120.374 25.4167 120.374 26.05C120.374 26.6567 120.201 27.19 119.854 27.65C119.514 28.1033 119.004 28.57 118.324 29.05L116.874 30.08L116.774 30.14V30.16L116.864 30.15H120.374V31H115.424ZM122.297 30.17C121.684 29.4833 121.377 28.5933 121.377 27.5C121.377 26.4067 121.684 25.5167 122.297 24.83C122.91 24.1433 123.654 23.8 124.527 23.8C125.4 23.8 126.144 24.1433 126.757 24.83C127.37 25.5167 127.677 26.4067 127.677 27.5C127.677 28.5933 127.37 29.4833 126.757 30.17C126.144 30.8567 125.4 31.2 124.527 31.2C123.654 31.2 122.91 30.8567 122.297 30.17ZM122.907 25.41C122.487 25.91 122.277 26.6067 122.277 27.5C122.277 28.3933 122.487 29.0933 122.907 29.6C123.334 30.1 123.874 30.35 124.527 30.35C125.18 30.35 125.717 30.1 126.137 29.6C126.564 29.0933 126.777 28.3933 126.777 27.5C126.777 26.6067 126.564 25.91 126.137 25.41C125.717 24.9033 125.18 24.65 124.527 24.65C123.874 24.65 123.334 24.9033 122.907 25.41ZM128.479 26.05V25.05L129.829 24H130.629V31H129.729V25.1L128.479 26.05ZM131.883 29.1C131.883 28.4867 132.123 28 132.603 27.64C132.823 27.48 133.066 27.3667 133.333 27.3V27.25C133.119 27.1767 132.926 27.07 132.753 26.93C132.373 26.6167 132.183 26.2067 132.183 25.7C132.183 25.1733 132.403 24.7267 132.843 24.36C133.289 23.9867 133.886 23.8 134.633 23.8C135.379 23.8 135.973 23.9867 136.413 24.36C136.859 24.7267 137.083 25.1733 137.083 25.7C137.083 26.2 136.889 26.61 136.503 26.93C136.323 27.0767 136.133 27.1833 135.933 27.25V27.3C136.186 27.3667 136.426 27.48 136.653 27.64C137.139 28.0067 137.383 28.4933 137.383 29.1C137.383 29.6733 137.133 30.1667 136.633 30.58C136.139 30.9933 135.473 31.2 134.633 31.2C133.793 31.2 133.123 30.9933 132.623 30.58C132.129 30.1667 131.883 29.6733 131.883 29.1ZM133.083 25.8C133.083 26.0933 133.223 26.35 133.503 26.57C133.783 26.79 134.159 26.9 134.633 26.9C135.106 26.9 135.483 26.79 135.763 26.57C136.043 26.35 136.183 26.0933 136.183 25.8C136.183 25.46 136.049 25.1833 135.783 24.97C135.523 24.7567 135.139 24.65 134.633 24.65C134.126 24.65 133.739 24.7567 133.473 24.97C133.213 25.1833 133.083 25.46 133.083 25.8ZM133.263 28.13C132.943 28.3767 132.783 28.6833 132.783 29.05C132.783 29.4167 132.943 29.7267 133.263 29.98C133.583 30.2267 134.039 30.35 134.633 30.35C135.226 30.35 135.683 30.2267 136.003 29.98C136.323 29.7267 136.483 29.4167 136.483 29.05C136.483 28.6833 136.323 28.3767 136.003 28.13C135.683 27.8767 135.226 27.75 134.633 27.75C134.039 27.75 133.583 27.8767 133.263 28.13ZM138.429 28.7V27.95H144.029V28.7H138.429ZM144.926 31V30.15L147.226 28.45C147.859 27.9767 148.309 27.57 148.576 27.23C148.843 26.89 148.976 26.4967 148.976 26.05C148.976 25.6433 148.836 25.31 148.556 25.05C148.283 24.7833 147.923 24.65 147.476 24.65C146.903 24.65 146.476 24.8833 146.196 25.35C146.063 25.5633 145.973 25.7967 145.926 26.05H144.976C145.036 25.6367 145.166 25.2633 145.366 24.93C145.839 24.1767 146.543 23.8 147.476 23.8C148.169 23.8 148.743 24.0167 149.196 24.45C149.649 24.8833 149.876 25.4167 149.876 26.05C149.876 26.6567 149.703 27.19 149.356 27.65C149.016 28.1033 148.506 28.57 147.826 29.05L146.376 30.08L146.276 30.14V30.16L146.366 30.15H149.876V31H144.926ZM151.799 30.17C151.186 29.4833 150.879 28.5933 150.879 27.5C150.879 26.4067 151.186 25.5167 151.799 24.83C152.412 24.1433 153.156 23.8 154.029 23.8C154.902 23.8 155.646 24.1433 156.259 24.83C156.872 25.5167 157.179 26.4067 157.179 27.5C157.179 28.5933 156.872 29.4833 156.259 30.17C155.646 30.8567 154.902 31.2 154.029 31.2C153.156 31.2 152.412 30.8567 151.799 30.17ZM152.409 25.41C151.989 25.91 151.779 26.6067 151.779 27.5C151.779 28.3933 151.989 29.0933 152.409 29.6C152.836 30.1 153.376 30.35 154.029 30.35C154.682 30.35 155.219 30.1 155.639 29.6C156.066 29.0933 156.279 28.3933 156.279 27.5C156.279 26.6067 156.066 25.91 155.639 25.41C155.219 24.9033 154.682 24.65 154.029 24.65C153.376 24.65 152.836 24.9033 152.409 25.41ZM158.031 31V30.15L160.331 28.45C160.965 27.9767 161.415 27.57 161.681 27.23C161.948 26.89 162.081 26.4967 162.081 26.05C162.081 25.6433 161.941 25.31 161.661 25.05C161.388 24.7833 161.028 24.65 160.581 24.65C160.008 24.65 159.581 24.8833 159.301 25.35C159.168 25.5633 159.078 25.7967 159.031 26.05H158.081C158.141 25.6367 158.271 25.2633 158.471 24.93C158.945 24.1767 159.648 23.8 160.581 23.8C161.275 23.8 161.848 24.0167 162.301 24.45C162.755 24.8833 162.981 25.4167 162.981 26.05C162.981 26.6567 162.808 27.19 162.461 27.65C162.121 28.1033 161.611 28.57 160.931 29.05L159.481 30.08L159.381 30.14V30.16L159.471 30.15H162.981V31H158.031ZM164.905 30.17C164.291 29.4833 163.985 28.5933 163.985 27.5C163.985 26.4067 164.291 25.5167 164.905 24.83C165.518 24.1433 166.261 23.8 167.135 23.8C168.008 23.8 168.751 24.1433 169.365 24.83C169.978 25.5167 170.285 26.4067 170.285 27.5C170.285 28.5933 169.978 29.4833 169.365 30.17C168.751 30.8567 168.008 31.2 167.135 31.2C166.261 31.2 165.518 30.8567 164.905 30.17ZM165.515 25.41C165.095 25.91 164.885 26.6067 164.885 27.5C164.885 28.3933 165.095 29.0933 165.515 29.6C165.941 30.1 166.481 30.35 167.135 30.35C167.788 30.35 168.325 30.1 168.745 29.6C169.171 29.0933 169.385 28.3933 169.385 27.5C169.385 26.6067 169.171 25.91 168.745 25.41C168.325 24.9033 167.788 24.65 167.135 24.65C166.481 24.65 165.941 24.9033 165.515 25.41Z" fill="#E9E9E9"/>
</svg>
